<svg width="1920" height="2153" viewBox="0 0 1920 2153" version="1.1" xmlns="http://www.w3.org/2000/svg" xmlns:xlink="http://www.w3.org/1999/xlink">
<title>cells</title>
<desc>Created using Figma</desc>
<g id="Canvas" transform="translate(11748 12347)">
<g id="cells">
<use xlink:href="#path0_fill" transform="translate(-11748 -12347)" fill="#1F1B1C"/>
</g>
</g>
<defs>
<path id="path0_fill" d="M 1910.83 380.09C 1913.52 358.715 1915.85 337.292 1918.42 315.902C 1918.6 314.411 1919.46 313.001 1920 311.554C 1920 306.549 1920 301.544 1920 296.54C 1916.72 295.924 1913.45 295.307 1909.41 294.547C 1896.9 392.656 1884.51 489.783 1871.82 589.219C 1796.72 519.866 1723.15 451.928 1649.04 383.494C 1654.9 375.944 1660.37 368.795 1665.94 361.723C 1746.61 259.283 1827.29 156.852 1907.97 54.4189C 1909.91 51.9618 1911.85 49.5104 1913.76 47.0327C 1920.37 38.4385 1920.37 38.4348 1910.9 29.5215C 1866.71 84.9644 1823.18 140.776 1779.32 196.332C 1735.45 251.903 1691.72 307.577 1646.26 362.527C 1646.12 360.802 1645.88 359.078 1645.85 357.35C 1644.62 270.737 1643.46 184.125 1642.18 97.5135C 1641.7 65.0074 1640.97 32.5042 1640.35 0.000938532C 1636.6 0.000938532 1632.84 0.000938532 1629.09 0.000938532C 1628.88 3.72691 1628.43 7.4557 1628.48 11.1779C 1629.87 110.316 1631.33 209.454 1632.72 308.593C 1632.99 327.983 1633.02 347.377 1633.11 366.77C 1633.12 368.908 1632.8 371.047 1632.54 374.44C 1559.17 351.86 1486.41 329.47 1412.64 306.768C 1414.11 303.378 1415.26 300.582 1416.52 297.832C 1460.27 202.003 1504.03 106.179 1547.77 10.3454C 1549.33 6.94232 1550.69 3.45098 1552.14 0.00187706C 1547.13 0.00187706 1542.13 0.00187706 1537.12 0.00187706C 1536.23 2.91602 1535.65 5.97376 1534.39 8.72459C 1492.52 100.56 1450.58 192.366 1408.64 284.172C 1407.61 286.419 1406.45 288.608 1404.32 292.919C 1388.46 242.793 1373.79 194.332 1358.84 145.961C 1343.8 97.3126 1328.8 48.6535 1313.78 2.209e-14C 1309.4 2.209e-14 1305.02 2.209e-14 1300.64 2.209e-14C 1331.16 99.0358 1361.67 198.072 1392.88 299.358C 1295.37 258.956 1199.75 219.342 1103.82 179.592C 1103.82 177.497 1103.53 175.625 1103.86 173.872C 1114.69 117.121 1125.59 60.3823 1136.48 3.64338C 1136.72 2.41766 1137.06 1.21352 1137.36 0C 1132.98 0 1128.6 0 1124.22 0C 1117.68 34.6572 1111.15 69.3172 1104.59 103.972C 1102.44 115.317 1100.23 126.651 1097.99 137.978C 1097.73 139.32 1097.06 140.584 1095.01 141.661C 1092.99 130.163 1090.91 118.675 1088.97 107.165C 1083.35 73.9282 1077.77 40.6844 1072.23 7.43317C 1071.83 4.99205 1071.85 2.4796 1071.67 2.37571e-14C 1067.29 2.37571e-14 1062.91 2.37571e-14 1058.53 2.37571e-14C 1065.88 44.1363 1073.23 88.2727 1080.58 132.41C 1080.2 132.539 1079.83 132.667 1079.45 132.796C 1078.07 130.076 1076.59 127.395 1075.31 124.629C 1057.2 85.5969 1039.12 46.5521 1021.01 7.51764C 1019.83 4.9761 1018.5 2.504 1017.24 1.37541e-14C 1012.86 1.37541e-14 1008.48 1.37541e-14 1004.11 1.37541e-14C 1005.6 3.74662 1006.91 7.57489 1008.6 11.2286C 1032.86 63.6775 1057.17 116.101 1081.46 168.538C 1082.76 171.341 1083.94 174.198 1085.79 178.443C 920.982 210.163 756.962 241.73 591.527 273.57C 593.086 270.586 593.829 268.712 594.945 267.094C 655.581 179.109 716.251 91.1465 776.909 3.17599C 777.616 2.15112 778.229 1.06054 778.885 2.209e-14C 773.255 2.209e-14 767.624 2.209e-14 761.993 2.209e-14C 756.275 8.85599 750.778 17.864 744.802 26.5426C 692.027 103.199 639.17 179.798 586.327 256.408C 584.398 259.205 582.366 261.93 579.512 265.899C 578.739 262.816 578.121 260.998 577.839 259.13C 569.099 201.126 560.415 143.113 551.666 85.1098C 547.386 56.7305 542.993 28.3699 538.651 2.209e-14C 534.271 2.209e-14 529.892 2.209e-14 525.513 2.209e-14C 527.218 9.46228 529.163 18.888 530.59 28.3925C 540.313 93.1521 549.929 157.93 559.573 222.701C 560.273 227.395 560.917 232.098 561.587 236.796C 560.998 236.97 560.408 237.143 559.818 237.316C 558.405 234.676 556.908 232.077 555.59 229.391C 519.175 155.149 482.779 80.8949 446.371 6.64762C 445.272 4.40829 444.081 2.21494 442.932 2.209e-14C 438.553 2.209e-14 434.173 2.209e-14 429.794 2.209e-14C 430.999 3.15816 431.963 6.43551 433.444 9.45946C 473.98 92.2267 514.573 174.966 555.14 257.718C 556.487 260.466 557.671 263.294 557.893 267.51C 392.426 184.827 226.959 102.143 60.1214 18.7763C 68.9258 11.9832 76.6921 5.99159 84.4585 2.209e-14C 73.823 2.209e-14 63.1876 2.209e-14 52.5522 2.209e-14C 51.2626 1.56453 49.974 3.13 48.1138 5.38811C 46.9022 3.26046 45.9731 1.63023 45.0448 2.209e-14C 40.6657 2.209e-14 36.2865 2.209e-14 31.9073 2.209e-14C 33.2118 3.43503 34.5164 6.87005 36.3371 11.666C 26.3652 11.1272 17.5477 10.6514 7.87428 10.1296C 7.64904 14.4525 7.4435 18.3718 7.18071 23.4098C 14.2507 24.2085 20.8654 24.9546 29.8294 25.9664C 20.2301 34.5108 12.2234 41.637 3.7729 49.1594C 6.15302 52.8497 8.26471 56.1223 10.8795 60.1777C 19.0118 53.1716 26.4995 46.7211 35.499 38.9679C 34.7942 43.0777 34.5305 45.3226 34.0152 47.5076C 24.1325 89.4618 14.2647 131.42 4.22246 173.336C 3.48758 176.403 1.43877 179.155 -4.45759e-11 182.054C -4.45759e-11 183.305 -4.45759e-11 184.557 -4.45759e-11 185.808C 3.93996 186.658 7.87898 187.508 13.1507 188.646C 25.6013 136.131 38.034 83.6842 50.783 29.9091C 216.033 112.489 380.425 194.638 544.815 276.788C 544.664 277.488 544.512 278.187 544.361 278.888C 365.722 289.76 187.082 300.632 7.91933 311.536C 7.91933 316.139 7.91933 320.022 7.91933 325.321C 69.6456 322.094 130.969 318.009 192.315 314.34C 253.813 310.661 315.313 307.007 376.807 303.266C 438.247 299.53 499.68 295.699 561.428 291.889C 559.445 300.037 314.681 729.942 299.274 752.936C 298.975 752.968 298.671 753.047 298.377 753.02C 298.082 752.993 297.78 752.896 297.514 752.765C 297.239 752.629 296.965 752.452 296.757 752.231C 296.33 751.775 295.916 751.301 295.55 750.795C 201.345 620.946 107.146 491.093 12.933 361.25C 12.764 361.017 12.4093 360.918 10.8156 359.957C 8.5566 362.616 6.0479 365.568 3.13657 368.994C 97.8091 499.638 192.443 630.229 287.861 761.901C 193.292 784.775 99.9011 807.365 5.99722 830.078C 6.78746 834.756 7.44444 838.642 8.30507 843.733C 31.2663 839.356 53.3931 833.256 75.6879 827.938C 98.4764 822.502 121.245 816.986 144.023 811.508C 166.497 806.104 188.976 800.724 211.445 795.299C 233.857 789.887 256.26 784.434 279.872 780.45C 210.742 868.533 141.612 956.616 71.5049 1045.94C 51.5723 1008.22 32.2179 971.583 12.5116 934.286C 8.85411 936.861 5.85738 938.969 1.97092 941.705C 20.9236 977.748 39.7374 1013.53 59.334 1050.79C 41.469 1051.43 25.1189 1052.02 8.07982 1052.63C 8.07982 1056.89 8.07982 1060.78 8.07982 1065.66C 26.1034 1065.66 44.3184 1065.66 63.2758 1065.66C 60.5616 1085.55 58.0013 1104.38 55.4203 1123.22C 48.8412 1171.23 42.2602 1219.24 35.6652 1267.24C 28.4741 1319.59 21.2671 1371.93 14.0677 1424.27C 10.6176 1449.35 7.25954 1474.45 3.62555 1499.51C 3.06431 1503.39 1.24074 1507.07 0.000938532 1510.85C 0.000938532 1512.72 0.000938532 1514.6 0.000938532 1516.48C 3.98031 1517.04 7.96063 1517.6 13.2417 1518.34C 33.7628 1369.2 54.2349 1220.41 74.9718 1069.7C 131.644 1109.28 186.865 1148.26 243.168 1187.82C 162.911 1325.43 82.8386 1462.72 2.0826 1601.19C 3.84047 1602.37 5.3975 1603.39 6.91698 1604.46C 8.43177 1605.52 9.90902 1606.64 12.3661 1608.44C 88.8227 1477.4 165.059 1346.73 241.296 1216.07C 241.967 1216.29 242.637 1216.51 243.308 1216.72C 233.813 1334.59 224.318 1452.45 214.763 1571.05C 145.105 1587.72 75.9498 1604.26 6.20745 1620.95C 7.03148 1625.74 7.69784 1629.61 8.56035 1634.62C 75.3341 1618.71 141.351 1602.98 209.372 1586.77C 188.178 1638.45 167.833 1688.05 146.962 1738.93C 123.352 1722.41 101.384 1705.11 78.9606 1688.45C 56.4133 1671.69 33.9955 1654.76 10.8081 1637.38C 8.82689 1640.61 6.92261 1643.03 5.76446 1645.76C 3.5026 1651.1 3.45286 1655.75 7.92872 1660.84C 37.8641 1694.89 67.4326 1729.26 97.1033 1763.55C 99.1174 1765.88 100.984 1768.33 104.014 1772.08C 70.9887 1777.7 39.1809 1783.12 6.68986 1788.66C 7.03617 1793.06 7.34495 1796.98 7.75509 1802.18C 12.4947 1801.72 17.0203 1801.53 21.4548 1800.8C 41.7844 1797.43 62.0858 1793.9 82.405 1790.47C 84.7372 1790.08 87.123 1790 91.6542 1789.58C 61.4954 1814.11 32.9669 1837.33 3.65464 1861.18C 5.89023 1864.91 8.02914 1868.48 10.7331 1873C 42.1504 1847.51 72.8611 1822.6 103.573 1797.69C 104.195 1797.97 104.818 1798.24 105.44 1798.52C 104.95 1801.33 104.628 1804.19 103.944 1806.95C 90.237 1862.45 76.4904 1917.95 62.7456 1973.44C 48.1758 2032.27 33.5985 2091.09 19.0438 2149.92C 18.8213 2150.82 18.8551 2151.79 18.7688 2152.72C 23.148 2152.72 27.5271 2152.72 31.9063 2152.72C 35.8172 2136.02 39.5507 2119.27 43.668 2102.62C 68.4715 2002.29 93.3623 1901.99 118.234 1801.68C 118.908 1798.96 119.701 1796.27 120.913 1791.84C 148.952 1824.67 175.331 1857.3 202.206 1889.51C 228.999 1921.62 255.546 1953.94 282.519 1986.55C 272.109 1998.61 262.141 2010.19 252.135 2021.73C 216.316 2063.06 180.466 2104.37 144.708 2145.75C 142.998 2147.73 142.06 2150.38 140.763 2152.72C 146.393 2152.72 152.024 2152.72 157.655 2152.72C 159.184 2150.42 160.484 2147.92 162.278 2145.85C 202.555 2099.29 242.894 2052.79 283.179 2006.23C 284.96 2004.18 286.335 2001.77 288.749 1998.3C 290.823 2002.63 291.811 2004.47 292.615 2006.4C 312.221 2053.38 331.815 2100.36 351.37 2147.36C 352.075 2149.06 352.362 2150.93 352.845 2152.72C 369.737 2152.72 386.628 2152.72 403.519 2152.72C 405.82 2151.24 407.957 2149.36 410.447 2148.33C 461.006 2127.51 511.604 2106.79 562.203 2086.07C 563.886 2085.38 565.665 2084.92 568.68 2083.94C 568.68 2107.45 568.68 2130.08 568.68 2152.72C 573.059 2152.72 577.438 2152.72 581.818 2152.72C 581.818 2129.96 581.818 2107.2 581.818 2083.59C 585.163 2084.52 587.83 2085.1 590.382 2086C 648.945 2106.69 707.503 2127.39 766.032 2148.18C 769.202 2149.31 772.104 2151.19 775.131 2152.72C 791.396 2152.72 807.662 2152.72 823.928 2152.72C 823.79 2149.96 824.036 2147.12 823.457 2144.46C 806.98 2068.8 790.395 1993.16 773.88 1917.51C 760.894 1858.02 747.971 1798.52 735.041 1739.02C 734.388 1736.01 733.945 1732.96 733.244 1729.04C 786.311 1723.47 838.674 1717.97 891.991 1712.38C 892.497 1715.38 893.18 1717.99 893.343 1720.62C 894.702 1742.76 895.897 1764.91 897.274 1787.04C 898.922 1813.55 900.756 1840.04 902.41 1866.54C 904.588 1901.46 906.608 1936.38 908.81 1971.3C 910.993 2005.91 913.443 2040.5 915.539 2075.11C 917.104 2100.97 918.292 2126.85 919.647 2152.72C 924.026 2152.72 928.405 2152.72 932.784 2152.72C 930.24 2111.25 927.766 2069.78 925.13 2028.31C 922.929 1993.71 920.462 1959.12 918.255 1924.52C 916.603 1898.64 915.239 1872.74 913.634 1846.86C 911.428 1811.31 909.095 1775.78 906.866 1740.23C 906.38 1732.47 906.101 1724.7 905.67 1715.76C 908.657 1716.71 911.175 1717.33 913.546 1718.31C 940.126 1729.23 966.681 1740.22 993.247 1751.19C 1003.66 1755.48 1002.83 1753.69 1002.84 1765.21C 1002.86 1843.68 1002.85 1922.15 1002.85 2000.61C 1002.85 2021.24 1002.57 2041.88 1002.99 2062.51C 1003.15 2070.52 1004.15 2078.67 1006 2086.46C 1011.28 2108.63 1017.2 2130.64 1022.87 2152.72C 1026.63 2152.72 1030.38 2152.72 1034.13 2152.72C 1033.83 2149.68 1033.88 2146.55 1033.15 2143.62C 1027.74 2121.79 1022.11 2100.01 1016.72 2078.18C 1015.76 2074.28 1015.15 2070.18 1015.15 2066.17C 1015.06 1971.42 1015.08 1876.67 1015.08 1781.92C 1015.08 1780.07 1015.08 1778.21 1015.08 1774.44C 1017.44 1777.27 1018.87 1778.62 1019.86 1780.23C 1066.22 1855.58 1112.49 1930.98 1158.96 2006.26C 1162.12 2011.38 1163.04 2016.04 1161.92 2021.97C 1154.05 2063.71 1146.51 2105.52 1138.84 2147.3C 1138.5 2149.13 1137.86 2150.91 1137.36 2152.72C 1141.74 2152.72 1146.12 2152.72 1150.5 2152.72C 1158.01 2111.75 1165.53 2070.77 1173.33 2028.26C 1176.14 2031.37 1177.86 2033.07 1179.34 2034.96C 1208.59 2072.38 1237.81 2109.81 1267.01 2147.26C 1268.35 2148.97 1269.42 2150.89 1270.61 2152.72C 1281.88 2152.72 1293.14 2152.72 1304.4 2152.72C 1306.22 2150.62 1307.86 2148.3 1309.9 2146.44C 1370.93 2090.86 1432 2035.32 1493.07 1979.8C 1495.31 1977.77 1497.71 1975.92 1501.2 1973.02C 1502.35 1982.02 1503.38 1989.64 1504.3 1997.26C 1510.18 2045.67 1516.06 2094.07 1521.85 2142.48C 1522.26 2145.86 1522.04 2149.31 1522.11 2152.72C 1526.49 2152.72 1530.87 2152.72 1535.25 2152.72C 1527.92 2093.11 1520.61 2033.51 1513.51 1971.9C 1602.08 2023.03 1688.73 2073.05 1776.61 2123.79C 1765.36 2131.62 1755.11 2138.62 1745.02 2145.87C 1742.39 2147.77 1740.29 2150.42 1737.94 2152.72C 1746.08 2152.72 1754.21 2152.72 1762.34 2152.72C 1762.88 2151.67 1763.14 2150.24 1763.98 2149.63C 1771.79 2144.07 1779.69 2138.64 1788.25 2132.7C 1794.01 2139.34 1799.98 2145.08 1803.63 2152.72C 1809.26 2152.72 1814.89 2152.72 1820.52 2152.72C 1816.98 2147.36 1813.43 2142 1809.14 2135.51C 1813.43 2136.33 1816.45 2136.81 1819.43 2137.5C 1832.49 2140.53 1845.53 2143.69 1858.62 2146.61C 1862.13 2147.4 1864.6 2148.52 1863.69 2152.72C 1868.07 2152.72 1872.45 2152.72 1876.83 2152.72C 1874.51 2145.37 1877.52 2139.88 1882.01 2134.1C 1894.98 2117.4 1907.37 2100.25 1920 2083.28C 1920 2082.65 1920 2082.03 1920 2081.4C 1917.19 2079.07 1914.39 2076.73 1910.72 2073.69C 1895.97 2093.45 1881.28 2113.12 1866.15 2133.38C 1847.51 2129.12 1829.03 2124.89 1808.34 2120.16C 1815.58 2115.41 1821.28 2111.59 1827.06 2107.89C 1833.11 2104.01 1839.23 2100.23 1845.31 2096.4C 1851.39 2092.57 1857.46 2088.72 1863.55 2084.9C 1869.63 2081.07 1875.74 2077.27 1881.83 2073.45C 1887.92 2069.63 1894.01 2065.82 1900.08 2061.97C 1906.1 2058.15 1912.09 2054.28 1918.56 2050.14C 1916.59 2045.91 1914.92 2042.32 1912.7 2037.56C 1872.85 2062.6 1833.64 2087.24 1793.37 2112.54C 1747.59 1937.3 1702.16 1763.41 1656.74 1589.52C 1657.38 1589.18 1658.02 1588.84 1658.66 1588.5C 1686.87 1628.24 1714.44 1668.42 1742.33 1708.38C 1770.41 1748.61 1798.46 1788.87 1826.51 1829.13C 1854.5 1869.33 1882.47 1909.54 1910.49 1949.81C 1914.21 1946.96 1917.1 1944.74 1920 1942.51C 1920 1941.89 1920 1941.26 1920 1940.64C 1860.37 1854.95 1800.75 1769.27 1741.12 1683.59C 1720.58 1654.08 1700.01 1624.6 1679.47 1595.1C 1678.24 1593.34 1677.13 1591.51 1677.15 1588.47C 1755.09 1651.12 1833.04 1713.77 1911.93 1777.19C 1914.38 1773.1 1916.5 1769.57 1919.04 1765.34C 1830.41 1694.06 1742.33 1623.21 1653.11 1551.46C 1742.15 1511.46 1829.79 1472.09 1917.86 1432.53C 1916.35 1427.99 1915.11 1424.23 1913.42 1419.13C 1826.63 1457.74 1740.7 1496.73 1654.53 1535.16C 1654.04 1534.7 1653.55 1534.25 1653.05 1533.79C 1715.9 1377.52 1778.74 1221.26 1841.58 1064.99C 1842.29 1065.05 1842.99 1065.11 1843.69 1065.17C 1865.57 1171.15 1887.44 1277.12 1909.46 1383.8C 1913.47 1382.87 1916.74 1382.1 1920 1381.34C 1920 1378.21 1920 1375.09 1920 1371.96C 1917.54 1360.44 1915.02 1348.93 1912.63 1337.4C 1893.41 1244.4 1874.2 1151.39 1855.01 1058.38C 1854.33 1055.1 1853.96 1051.75 1853.3 1047.51C 1874.4 1048.2 1894.54 1048.86 1915.2 1049.53C 1915.2 1044.34 1915.2 1040.4 1915.2 1035.18C 1897.95 1034.47 1880.67 1033.76 1861.72 1032.98C 1864.66 1029.6 1866.31 1027.5 1868.17 1025.59C 1882.8 1010.6 1897.48 995.637 1912.14 980.666C 1920.14 972.502 1920.14 972.503 1912.71 964.112C 1893.36 982.782 1873.96 1001.5 1854.55 1020.22C 1853.93 1020.03 1853.3 1019.83 1852.68 1019.64C 1857.1 953.557 1862.14 887.518 1866.82 821.457C 1871.5 755.466 1876.38 689.491 1881.32 621.384C 1893 633.753 1900.64 646.941 1910.9 658.113C 1911.94 657.455 1912.8 657.115 1913.39 656.511C 1920.23 649.486 1920.26 649.365 1914.52 641.787C 1905.3 629.621 1896.02 617.495 1886.35 604.798C 1897.22 597.649 1907.58 590.836 1918.56 583.621C 1916.66 579.566 1914.98 575.996 1912.73 571.185C 1903.64 576.93 1895.13 582.304 1885.04 588.678C 1885.61 581.791 1885.83 576.667 1886.48 571.594C 1894.57 507.759 1902.78 443.934 1910.83 380.09ZM 1651.47 404.348C 1722.12 469.316 1792.49 534.584 1863.08 599.666C 1857.99 604.477 1712.33 678.266 1699.36 682.496C 1682.8 589.657 1666.38 497.562 1649.95 405.466C 1650.46 405.094 1650.96 404.721 1651.47 404.348ZM 1118.77 1382.88C 1118.58 1382.24 1118.44 1381.98 1118.43 1381.71C 1118.41 1381.41 1118.4 1380.99 1118.57 1380.82C 1250.1 1248.81 1381.65 1116.81 1513.21 984.833C 1514.27 983.772 1515.51 982.895 1517.97 980.845C 1555.85 1167.44 1593.43 1352.53 1631.39 1539.52C 1459.35 1486.95 1288.96 1434.88 1118.77 1382.88ZM 1619.12 1551.58C 1523.39 1596.92 1429.21 1641.53 1334.06 1686.6C 1263.69 1591.35 1193.59 1496.48 1123.2 1401.22C 1130.71 1401.01 1595.76 1542.07 1619.12 1551.58ZM 1177.24 964.682C 1081.67 906.611 987.982 849.678 893.207 792.085C 1004.97 663.041 1116.12 534.706 1227.28 406.371C 1227.93 406.695 1228.58 407.019 1229.23 407.343C 1211.95 592.505 1194.68 777.668 1177.24 964.682ZM 1241.26 411.88C 1242.08 411.735 1242.91 411.589 1243.74 411.444C 1332.54 593.709 1421.34 775.975 1510.97 959.931C 1403.15 962.827 1297.08 965.677 1191.13 968.523C 1189.5 959.662 1210.5 735.612 1215.25 689.353C 1224.73 596.946 1232.68 504.381 1241.26 411.88ZM 1076.7 919.96C 1076.42 920.555 1076.15 921.151 1075.87 921.746C 1053.57 913.017 1031.82 902.915 1009.8 893.5C 987.423 883.932 965.103 874.227 942.77 864.549C 920.514 854.905 898.275 845.221 875.275 835.228C 878.843 824.78 882.129 815.163 885.919 804.067C 950.122 843.067 1013.41 881.514 1076.7 919.96ZM 1166.41 976.845C 1161.71 982.725 830.625 1219.13 820.286 1224.01C 837.465 1099.33 854.576 975.149 871.899 849.424C 970.639 891.943 1068.4 934.451 1166.41 976.845ZM 772.451 951.112C 771.454 944.885 772.675 940.766 777.254 936.37C 801.616 912.985 825.647 889.258 849.814 865.671C 851.926 863.61 854.183 861.699 856.374 859.718C 856.834 860.072 857.293 860.426 857.753 860.781C 842.582 970.879 827.413 1080.98 812.243 1191.08C 811.859 1191.15 811.475 1191.23 811.092 1191.31C 810.446 1188.67 809.604 1186.07 809.182 1183.39C 796.958 1105.96 784.851 1028.51 772.451 951.112ZM 804.363 1233.16C 739.541 1235.88 676.055 1238.55 610.397 1241.31C 660.86 1146.98 710.273 1054.6 759.687 962.231C 760.372 962.318 761.058 962.406 761.744 962.494C 775.875 1052.24 790.006 1141.98 804.363 1233.16ZM 852.253 842.134C 855.26 838.445 858.266 834.757 861.273 831.067C 861.921 831.621 862.571 832.174 863.22 832.728C 860.019 836.227 856.818 839.727 853.617 843.227C 853.162 842.863 852.708 842.499 852.253 842.134ZM 762.802 931.1C 653.511 882.777 544.657 834.648 435.805 786.52C 446.921 785.157 859.706 798.854 867.121 802.601C 832.387 845.386 797.779 888.015 762.802 931.1ZM 750.167 941.072C 751.546 941.68 752.793 942.591 754.878 943.818C 703.311 1040.21 651.901 1136.31 599.432 1234.39C 535.032 1085.71 471.394 938.781 407.776 791.901C 408.291 791.445 408.493 791.198 408.753 791.057C 408.998 790.923 409.367 790.761 409.574 790.853C 523.114 840.905 636.645 890.977 750.167 941.072ZM 587.815 1239.77C 477.889 1219.58 369.763 1199.73 260.564 1179.68C 305.173 1050.92 349.384 923.32 393.594 795.717C 394.284 795.83 394.973 795.943 395.663 796.055C 459.441 943.328 523.217 1090.6 587.815 1239.77ZM 595.575 1261.05C 612.634 1322.91 629.196 1382.96 646.111 1444.29C 514.899 1482.86 384.232 1521.27 253.566 1559.68C 253.243 1559.13 252.92 1558.58 252.597 1558.03C 366.475 1459.42 480.354 1360.82 595.575 1261.05ZM 649.819 1458.2C 671.786 1542.72 693.576 1626.56 715.907 1712.49C 558.992 1667.2 404.269 1622.55 249.547 1577.89C 249.476 1577.23 249.404 1576.57 249.332 1575.91C 382.456 1536.78 515.579 1497.65 649.819 1458.2ZM 607.301 1256.12C 670.744 1253.39 733.101 1250.7 797.584 1247.91C 750.184 1310.84 704.079 1372.05 656.629 1435.05C 639.944 1374.53 623.82 1316.04 607.301 1256.12ZM 813.686 1248.52C 873.955 1272.6 933.829 1296.52 993.703 1320.45C 993.692 1321.15 993.682 1321.85 993.671 1322.55C 887.987 1359.68 782.304 1396.81 676.621 1433.94C 676.179 1433.39 675.738 1432.84 675.296 1432.29C 721.212 1371.32 767.127 1310.34 813.686 1248.52ZM 826.366 1238.18C 939.247 1157.76 1050.65 1078.4 1162.48 998.729C 1161.37 1006.19 1023.6 1295.9 1013.19 1312.87C 951.121 1288.06 889.518 1263.43 826.366 1238.18ZM 1020.02 1332.98C 1045.58 1351.75 1069.88 1369.6 1094.53 1387.7C 1036.86 1477.33 979.614 1566.29 922.37 1655.26C 921.774 1655.01 921.179 1654.75 920.582 1654.5C 953.529 1547.98 986.475 1441.46 1020.02 1332.98ZM 1025.12 1319.54C 1071.45 1222.77 1117.62 1126.3 1163.8 1029.83C 1164.39 1030.05 1164.99 1030.26 1165.58 1030.48C 1143.64 1144.46 1121.7 1258.44 1099.44 1374.06C 1074.21 1355.55 1050.13 1337.89 1025.12 1319.54ZM 1187.43 983.118C 1292.35 980.335 1396.93 977.561 1501.52 974.787C 1501.64 975.08 1501.8 975.349 1501.85 975.637C 1501.9 975.92 1501.95 976.317 1501.8 976.502C 1500.63 977.948 1499.5 979.45 1498.19 980.758C 1370.5 1107.76 1242.81 1234.74 1114.43 1362.4C 1138.7 1236.29 1162.95 1110.29 1187.43 983.118ZM 1263.92 423.525C 1264.27 423.117 1264.42 422.789 1264.67 422.689C 1264.92 422.591 1265.37 422.608 1265.54 422.771C 1268.47 425.572 1271.43 428.341 1274.27 431.237C 1395.66 555.224 1517.04 679.223 1638.87 803.681C 1599.9 854.273 1561.77 903.784 1522.66 954.554C 1436.01 776.711 1349.94 600.076 1263.92 423.525ZM 1647.89 813.655C 1707.32 885.032 1765.95 955.438 1824.57 1025.84C 1824.21 1026.41 1823.85 1026.97 1823.49 1027.53C 1727.45 1005.9 1631.41 984.263 1533.54 962.217C 1572.03 912.217 1609.61 863.398 1647.89 813.655ZM 1444.83 380.578C 1445.47 380.167 1446.11 379.756 1446.75 379.346C 1526.91 484.386 1607.07 589.425 1687.59 694.93C 1674.2 725.797 1661.18 755.809 1647.31 787.773C 1579.2 650.811 1512.02 515.694 1444.83 380.578ZM 1816.55 995.348C 1762.98 931.028 1709.41 866.71 1655.26 801.687C 1668.16 771.935 1681.12 742.055 1694.08 712.175C 1694.73 712.198 1695.39 712.221 1696.05 712.244C 1736.79 806.313 1777.53 900.381 1818.27 994.45C 1817.7 994.749 1817.12 995.049 1816.55 995.348ZM 1425.56 325.783C 1494.98 347.152 1564.41 368.519 1634.51 390.097C 1650.84 481.669 1667.14 573.056 1683.44 664.444C 1682.84 664.738 1682.24 665.031 1681.64 665.323C 1595.86 552.915 1510.09 440.506 1424.31 328.097C 1424.72 327.325 1425.14 326.554 1425.56 325.783ZM 1400.5 320.347C 1473.88 467.907 1546.98 614.922 1620.08 761.936C 1619.54 762.464 1619 762.992 1618.45 763.52C 1495.81 638.261 1373.17 513.002 1249.55 386.754C 1300.18 364.483 1349.81 342.648 1400.5 320.347ZM 1118.08 200.925C 1206.21 237.443 1294.35 273.96 1382.64 310.545C 1377.41 315.678 1271.9 363.214 1239.32 375.182C 1198.65 317.811 1157.79 260.159 1116.92 202.508C 1117.31 201.981 1117.7 201.452 1118.08 200.925ZM 1096.76 200.039C 1102.8 204.405 1216.53 363.105 1228.81 384.177C 1120.46 509.284 1011.89 634.627 903.331 759.97C 902.771 759.647 902.211 759.325 901.651 759.003C 966.672 572.728 1031.69 386.454 1096.76 200.039ZM 1085.73 193.19C 1017.4 388.952 949.731 582.824 881.291 778.898C 782.397 614.958 684.654 452.927 585.986 289.361C 752.855 257.249 918.354 225.4 1085.73 193.19ZM 576.504 298.856C 674.774 461.761 771.982 622.903 870.495 786.207C 713.594 780.368 559.137 774.618 403.136 768.813C 460.954 612.084 518.324 456.569 576.504 298.856ZM 537.111 363.302C 537.706 363.566 538.302 363.83 538.897 364.094C 489.344 498.425 439.792 632.757 389.905 767.998C 363.787 765.505 337.841 763.029 310.006 760.372C 386.245 627.075 461.678 495.188 537.111 363.302ZM 304.561 774.452C 331.422 777.034 357.39 779.531 384.869 782.173C 345.407 896.073 306.27 1009.03 267.133 1121.99C 266.538 1121.83 265.944 1121.66 265.349 1121.5C 278.346 1006.47 291.343 891.438 304.561 774.452ZM 80.2145 1056.33C 149.54 968.001 218.47 880.181 287.211 792.598C 288.249 792.867 288.598 792.878 288.84 793.045C 289.057 793.194 289.296 793.518 289.287 793.756C 289.144 797.479 289.178 801.226 288.758 804.92C 274.898 927.052 260.994 1049.18 246.855 1173.42C 190.498 1133.82 135.852 1095.42 80.2145 1056.33ZM 256.948 1199.15C 257.066 1197.66 257.604 1196.21 258.134 1193.93C 366.08 1213.77 473.631 1233.52 583.226 1253.66C 464.339 1356.6 347.175 1458.05 230.21 1559.34C 229.392 1559.02 229.065 1558.95 228.822 1558.77C 228.602 1558.61 228.314 1558.31 228.331 1558.09C 237.845 1438.44 247.38 1318.79 256.948 1199.15ZM 118.521 1767.7C 93.7096 1739.33 69.518 1711.19 45.1791 1683.18C 45.6737 1682.63 46.1673 1682.08 46.6619 1681.53C 76.9136 1704.22 107.165 1726.92 138.213 1750.2C 131.553 1756.12 125.563 1761.44 118.521 1767.7ZM 233.059 1905.91C 197.993 1863.58 162.925 1821.24 127.252 1778.18C 134.082 1772.25 140.589 1766.6 147.92 1760.24C 177.026 1808.77 205.75 1856.65 234.473 1904.53C 234.002 1904.99 233.531 1905.45 233.059 1905.91ZM 276.303 1948.38C 274.657 1945.83 272.934 1943.33 271.377 1940.74C 234.418 1879.11 197.497 1817.46 160.483 1755.86C 158.135 1751.95 156.59 1748.69 158.627 1743.79C 177.697 1697.94 196.478 1651.96 215.363 1606.03C 215.707 1605.19 216.306 1604.46 217.926 1601.83C 225.612 1641.55 231.678 1679.85 238.398 1718.02C 245.111 1756.14 251.717 1794.28 258.316 1832.42C 264.961 1870.83 271.538 1909.25 278.144 1947.66C 277.531 1947.9 276.917 1948.14 276.303 1948.38ZM 228.365 1586.75C 388.443 1632.95 546.67 1678.61 705.207 1724.36C 700.362 1729.88 310.154 1968.3 295.559 1974.67C 273.157 1845.34 250.918 1716.96 228.365 1586.75ZM 573.858 2060.5C 571.781 2065.41 568.923 2068.57 563.827 2070.64C 499.296 2096.88 434.851 2123.34 370.379 2149.72C 369.542 2150.07 368.632 2150.23 366.694 2150.78C 344.475 2097.54 322.268 2044.33 299.522 1989.83C 436.034 1906.73 571.817 1824.07 708.258 1741.01C 709.384 1745.45 707.107 1748.22 705.896 1751.07C 678.228 1816.02 650.477 1880.93 622.743 1945.85C 606.422 1984.06 590.044 2022.24 573.858 2060.5ZM 811.268 2147.55C 803.46 2147.06 600.244 2076.09 585.619 2069C 586.468 2062.33 715.041 1759.65 723.524 1745.08C 753.014 1880.35 782.114 2013.83 811.268 2147.55ZM 729.508 1714.84C 708.776 1635.03 688.173 1555.73 667.571 1476.43C 668.227 1476.07 668.883 1475.71 669.539 1475.36C 740.371 1549.22 811.203 1623.08 883.661 1698.63C 831.081 1704.16 780.682 1709.46 729.508 1714.84ZM 895.795 1691.82C 818.775 1611.5 743.171 1532.66 666.483 1452.69C 780.175 1412.74 892.313 1373.34 1006.71 1333.15C 969.637 1453.45 932.973 1571.63 895.795 1691.82ZM 1004.88 1740.54C 972.261 1727.08 941.153 1714.25 908.616 1700.82C 967.478 1609.33 1025.83 1518.64 1084.18 1427.94C 1084.75 1428.2 1085.33 1428.45 1085.9 1428.7C 1059 1532.23 1032.1 1635.76 1004.88 1740.54ZM 1017.74 1741.07C 1047.31 1627.24 1076.47 1515.01 1106.23 1400.46C 1178.23 1497.91 1248.7 1593.3 1320.14 1690C 1218.97 1707.09 1119.28 1723.93 1017.74 1741.07ZM 1170.13 1999.73C 1119.79 1917.83 1070.18 1837.11 1019.96 1755.4C 1120.45 1738.43 1219.37 1721.71 1318.3 1705C 1318.61 1705.7 1318.93 1706.41 1319.24 1707.11C 1269.79 1804.17 1220.33 1901.22 1170.13 1999.73ZM 1285.86 2150.46C 1249.75 2104.24 1214.04 2058.53 1177.81 2012.16C 1229.16 1911.38 1280.47 1810.69 1332.78 1708.01C 1388.13 1792.24 1442.34 1874.75 1497.17 1958.19C 1426.88 2022.15 1356.91 2085.82 1285.86 2150.46ZM 1504.84 1941.84C 1503.92 1941.89 1503.6 1941.95 1503.29 1941.91C 1503.01 1941.87 1502.65 1941.79 1502.47 1941.59C 1501.63 1940.68 1500.73 1939.8 1500.06 1938.77C 1447.72 1859.13 1395.4 1779.47 1342.18 1698.44C 1437.76 1653.17 1532.19 1608.44 1626.61 1563.71C 1627.13 1564.11 1627.64 1564.5 1628.16 1564.89C 1587.03 1690.61 1545.9 1816.33 1504.84 1941.84ZM 1778.66 2105.96C 1778.01 2106.74 1777.87 2107.05 1777.63 2107.16C 1777.36 2107.28 1776.94 2107.36 1776.72 2107.24C 1766.1 2101.27 1755.45 2095.37 1744.9 2089.29C 1668.05 2044.94 1591.21 2000.55 1513.59 1955.73C 1555.17 1828.68 1596.59 1702.09 1638.02 1575.49C 1638.72 1575.54 1639.42 1575.59 1640.12 1575.65C 1686.33 1752.55 1732.55 1929.46 1778.66 2105.96ZM 1643.13 1524.31C 1642.42 1524.21 1641.71 1524.1 1641.01 1524C 1604.09 1342.15 1567.17 1160.29 1529.93 976.86C 1556.52 981.319 1581.4 988.066 1606.55 993.447C 1632.18 998.934 1657.68 1005.04 1683.26 1010.82C 1708.53 1016.54 1733.81 1022.2 1759.09 1027.89C 1784.28 1033.55 1809.48 1039.21 1835.84 1045.13C 1771.18 1205.9 1707.16 1365.1 1643.13 1524.31ZM 1868.91 623.636C 1859.52 752.179 1850.11 880.72 1840.69 1009.26C 1840.08 1009.43 1839.46 1009.59 1838.84 1009.76C 1793.87 905.939 1748.91 802.122 1703.55 697.418C 1758.52 669.823 1812.85 642.545 1866.43 615.651C 1867.85 616.086 1868.22 616.102 1868.43 616.29C 1868.63 616.465 1868.76 616.819 1868.77 617.101C 1868.84 619.279 1869.06 621.471 1868.91 623.636Z"/>
</defs>
</svg>
